max v2;#N vpatcher 221 41 1079 750;#P origin -91 -7;#P newex 289 82 95 196617 s note_from_score;#P comment 464 53 121 196617 (time \, pitch \, and duration values not used here);#P comment 203 304 117 196617 when events are advanced the detonate is instructed to follow from the event where advancing has stopped;#P comment 508 300 65 196617 if yes \, then initialize the next secion;#P comment 476 257 100 196617 test to see if the last event in the present section has been sent;#P comment 544 619 100 196617 separate the time delays and event numbers being output from the qlist and send time delays to the delay object;#P comment 685 618 108 196617 send the present event number for comparison with any incoming event numbers;#P comment 393 636 80 196617 gets time delays from the qlist;#P comment 271 557 105 196617 outlet for 'rewind' and 'next' messages which are sent to the qlist;#P comment 213 431 179 196617 If negative \, do nothing. If zero \, send a 'next' to the qlist and 'bang' the delay object. If positive \, send a 'next' to the qlist \, a delay time of zero to the delay object \, and 'bang' the delay object.;#P comment 261 375 121 196617 if the event number is 0 \, initialization takes place \, and a 'rewind' and 'next' message are sent to qlist;#P comment 398 350 119 196617 event numbers to qlist;#P newex 0 284 32 9 gate;#P toggle 0 260 15 0;#P newex 22 236 50 9 r pitch_to_detonate;#P comment 603 552 52 196617 from qlist;#P newex 585 572 50 196617 pack;#P message 633 443 41 9 999999;#P newex 585 593 120 9 unpack;#P inlet 585 552 15 0;#P newex 389 612 109 9 del;#P newex 488 563 26 9 t b;#P newex 488 588 26 9 0;#P newex 488 541 82 9 split 1 100000;#P outlet 307 537 15 0;#P newex 449 498 128 9 t b i b b;#P message 527 520 38 9 next 0;#P message 587 520 45 9 rewind;#P newex 449 472 77 9 split 0 100000;#P newex 606 421 29 9 0;#P newex 449 443 167 9 -;#P message 389 392 31 9 stop;#P newex 389 366 70 9 sel 0;#P newex 587 398 29 9 t b b;#N vpatcher 40 55 363 319;#P comment 68 139 100 196617 GATE needed for input because in stop mode \, detonate still accepts info for nth and also has a bug in follow mode where it accepts info;#P comment 70 42 100 196617 detonate does not allow for a velocity of zero \, unlike explode \, so the first event (event 0) needs to be encoded with a velocity of 0.;#P pop;#P newobj 29 338 136 196617 p diff-explode-detonate;#P newex 301 220 27 196617 0;#P message 332 215 50 9 set 10000;#P newex 237 220 26 196617 127;#P newex 237 196 47 196617 sel 0;#P newex 287 196 41 9 r reset;#P newex 295 155 33 9 + 1;#P newex 237 148 50 9 t b;#P newex 121 284 29 9 gate;#P toggle 121 108 15 0;#P newex 267 102 91 9 r goto_next_event;#P newex 140 255 97 9 r detonate_message;#P newex 389 232 43 9 change;#P message 237 274 44 9 followat 5 \$1 2;#P message 80 213 30 9 stop;#P outlet 80 303 15 0;#P newex 97 155 25 9 0;#P comment 17 65 51 196618 SECTION $1;#P inlet 263 55 15 0;#P newex 80 132 45 9 sel 0 1;#P newex 80 65 91 9 r section_number;#P newex 80 89 37 9 == $1;#P newex 237 124 40 9 gate;#P newex 237 174 26 9 i;#P newex 423 211 73 9 s evt_number;#P newex 389 129 60 9 route 2;#P newex 389 106 61 9 pack;#P newex 389 82 61 9 swap;#P inlet 440 55 15 0;#P inlet 389 55 15 0;#P inlet 413 55 15 0;#P inlet 289 55 15 0;#P newex 389 193 29 9 i;#P comment 223 35 241 196618 inlets: time_pit____________vel_dur_chan;#P comment 60 320 83 196618 back to detonate;#P message 405 302 99 9 \; section_number $2;#P newex 405 256 67 9 sel $3;#P message 287 274 37 9 params 2 200 1;#P newex 405 280 67 9 del 0;#P comment 678 440 76 196617 avoid infinite loop potential;#P connect 18 0 60 0;#P connect 60 0 61 0;#P connect 59 0 61 1;#P connect 19 0 18 0;#P connect 18 0 20 0;#P connect 20 0 25 0;#P connect 26 0 24 0;#P connect 31 0 24 0;#P connect 25 0 24 0;#P connect 2 0 24 0;#P connect 61 0 24 0;#P connect 20 1 23 0;#P connect 18 0 30 0;#P connect 30 0 31 0;#P connect 28 0 31 1;#P connect 30 0 17 0;#P connect 17 0 32 0;#P connect 32 0 16 0;#P connect 23 0 16 0;#P connect 16 0 35 0;#P connect 35 0 36 0;#P connect 35 1 26 0;#P connect 36 0 26 0;#P connect 33 0 16 1;#P connect 29 0 17 1;#P connect 34 0 2 0;#P connect 8 0 73 0;#P connect 7 0 33 0;#P connect 34 0 38 0;#P connect 46 0 49 0;#P connect 47 0 49 0;#P connect 34 0 37 0;#P connect 10 0 12 0;#P connect 12 0 13 0;#P connect 13 0 14 0;#P connect 14 0 7 0;#P connect 16 0 7 0;#P connect 7 0 27 0;#P connect 37 0 27 0;#P connect 27 0 41 0;#P connect 38 0 41 0;#P connect 41 0 42 0;#P connect 48 0 53 0;#P connect 42 0 53 0;#P connect 27 0 3 0;#P connect 3 0 1 0;#P connect 1 0 4 0;#P connect 7 0 15 0;#P connect 11 0 12 1;#P connect 12 1 13 1;#P connect 41 1 43 0;#P connect 53 0 43 0;#P connect 43 0 45 0;#P connect 45 0 48 0;#P connect 48 1 50 0;#P connect 50 0 52 0;#P connect 52 0 51 0;#P connect 55 0 53 1;#P connect 51 0 53 1;#P connect 48 2 47 0;#P connect 54 0 57 0;#P connect 57 0 55 0;#P connect 41 0 40 0;#P connect 40 0 46 0;#P connect 40 1 44 0;#P connect 56 0 43 1;#P connect 55 1 43 1;#P connect 44 0 43 1;#P connect 48 3 56 0;#P pop;