{
	"patcher" : 	{
		"fileversion" : 1,
		"rect" : [ 225.0, 146.0, 785.0, 634.0 ],
		"bglocked" : 0,
		"defrect" : [ 225.0, 146.0, 785.0, 634.0 ],
		"openrect" : [ 0.0, 0.0, 0.0, 0.0 ],
		"openinpresentation" : 0,
		"default_fontsize" : 9.0,
		"default_fontface" : 0,
		"default_fontname" : "Arial",
		"gridonopen" : 0,
		"gridsize" : [ 15.0, 15.0 ],
		"gridsnaponopen" : 0,
		"toolbarvisible" : 1,
		"boxanimatetime" : 200,
		"imprint" : 0,
		"enablehscroll" : 1,
		"enablevscroll" : 1,
		"boxes" : [ 			{
				"box" : 				{
					"maxclass" : "newobj",
					"text" : "buffer~ polysamp-init",
					"numoutlets" : 2,
					"patching_rect" : [ 563.0, 144.0, 94.0, 17.0 ],
					"outlettype" : [ "float", "bang" ],
					"fontname" : "Arial",
					"id" : "obj-16",
					"fontsize" : 9.0,
					"numinlets" : 1
				}

			}
, 			{
				"box" : 				{
					"maxclass" : "newobj",
					"text" : "buffer~ default",
					"numoutlets" : 2,
					"patching_rect" : [ 485.0, 463.0, 68.0, 17.0 ],
					"outlettype" : [ "float", "bang" ],
					"fontname" : "Arial",
					"id" : "obj-15",
					"fontsize" : 9.0,
					"numinlets" : 1
				}

			}
, 			{
				"box" : 				{
					"maxclass" : "newobj",
					"text" : "poly-sampler",
					"numoutlets" : 1,
					"patching_rect" : [ 333.0, 306.0, 62.0, 17.0 ],
					"outlettype" : [ "signal" ],
					"fontname" : "Arial",
					"id" : "obj-14",
					"fontsize" : 9.0,
					"numinlets" : 1
				}

			}
, 			{
				"box" : 				{
					"maxclass" : "message",
					"text" : "0, 10000 10000",
					"numoutlets" : 1,
					"patching_rect" : [ 506.0, 342.0, 73.0, 15.0 ],
					"outlettype" : [ "" ],
					"fontname" : "Arial",
					"id" : "obj-13",
					"fontsize" : 9.0,
					"numinlets" : 2
				}

			}
, 			{
				"box" : 				{
					"maxclass" : "newobj",
					"text" : "play~ samp1",
					"numoutlets" : 1,
					"patching_rect" : [ 506.0, 388.0, 62.0, 17.0 ],
					"outlettype" : [ "signal" ],
					"fontname" : "Arial",
					"id" : "obj-12",
					"fontsize" : 9.0,
					"numinlets" : 1
				}

			}
, 			{
				"box" : 				{
					"maxclass" : "button",
					"numoutlets" : 1,
					"patching_rect" : [ 314.0, 163.0, 13.0, 13.0 ],
					"outlettype" : [ "bang" ],
					"id" : "obj-10",
					"numinlets" : 1
				}

			}
, 			{
				"box" : 				{
					"maxclass" : "message",
					"text" : "target $1",
					"numoutlets" : 1,
					"patching_rect" : [ 312.0, 197.0, 46.0, 15.0 ],
					"outlettype" : [ "" ],
					"fontname" : "Arial",
					"id" : "obj-9",
					"fontsize" : 9.0,
					"numinlets" : 2
				}

			}
, 			{
				"box" : 				{
					"maxclass" : "newobj",
					"text" : "counter 1 32",
					"numoutlets" : 4,
					"patching_rect" : [ 312.0, 178.0, 73.0, 17.0 ],
					"outlettype" : [ "int", "", "", "int" ],
					"fontname" : "Arial",
					"id" : "obj-8",
					"fontsize" : 9.0,
					"numinlets" : 5
				}

			}
, 			{
				"box" : 				{
					"maxclass" : "newobj",
					"text" : "line~",
					"numoutlets" : 2,
					"patching_rect" : [ 506.0, 362.0, 32.5, 17.0 ],
					"outlettype" : [ "signal", "bang" ],
					"fontname" : "Arial",
					"id" : "obj-7",
					"fontsize" : 9.0,
					"numinlets" : 2
				}

			}
, 			{
				"box" : 				{
					"maxclass" : "ezdac~",
					"numoutlets" : 0,
					"patching_rect" : [ 294.0, 425.0, 45.0, 45.0 ],
					"id" : "obj-5",
					"numinlets" : 2
				}

			}
, 			{
				"box" : 				{
					"maxclass" : "message",
					"text" : "60. 127 0 50 50 1 0 samp1 11000.113281",
					"numoutlets" : 1,
					"patching_rect" : [ 280.0, 143.0, 178.0, 15.0 ],
					"outlettype" : [ "" ],
					"fontname" : "Arial",
					"id" : "obj-4",
					"fontsize" : 9.0,
					"numinlets" : 2
				}

			}
, 			{
				"box" : 				{
					"maxclass" : "message",
					"text" : "replace samp1.aiff",
					"numoutlets" : 1,
					"patching_rect" : [ 488.0, 245.0, 84.0, 15.0 ],
					"outlettype" : [ "" ],
					"fontname" : "Arial",
					"id" : "obj-3",
					"fontsize" : 9.0,
					"numinlets" : 2
				}

			}
, 			{
				"box" : 				{
					"maxclass" : "newobj",
					"text" : "buffer~ samp1",
					"numoutlets" : 2,
					"patching_rect" : [ 488.0, 270.0, 68.0, 17.0 ],
					"outlettype" : [ "float", "bang" ],
					"fontname" : "Arial",
					"id" : "obj-2",
					"fontsize" : 9.0,
					"numinlets" : 1
				}

			}
, 			{
				"box" : 				{
					"maxclass" : "newobj",
					"text" : "poly~ poly-sampler 32",
					"numoutlets" : 1,
					"patching_rect" : [ 287.0, 251.0, 99.0, 17.0 ],
					"outlettype" : [ "signal" ],
					"fontname" : "Arial",
					"id" : "obj-1",
					"fontsize" : 9.0,
					"numinlets" : 1
				}

			}
 ],
		"lines" : [ 			{
				"patchline" : 				{
					"source" : [ "obj-8", 0 ],
					"destination" : [ "obj-9", 0 ],
					"hidden" : 0,
					"midpoints" : [  ]
				}

			}
, 			{
				"patchline" : 				{
					"source" : [ "obj-10", 0 ],
					"destination" : [ "obj-8", 0 ],
					"hidden" : 0,
					"midpoints" : [  ]
				}

			}
, 			{
				"patchline" : 				{
					"source" : [ "obj-4", 0 ],
					"destination" : [ "obj-1", 0 ],
					"hidden" : 0,
					"midpoints" : [  ]
				}

			}
, 			{
				"patchline" : 				{
					"source" : [ "obj-9", 0 ],
					"destination" : [ "obj-1", 0 ],
					"hidden" : 0,
					"midpoints" : [  ]
				}

			}
, 			{
				"patchline" : 				{
					"source" : [ "obj-1", 0 ],
					"destination" : [ "obj-5", 0 ],
					"hidden" : 0,
					"midpoints" : [  ]
				}

			}
, 			{
				"patchline" : 				{
					"source" : [ "obj-1", 0 ],
					"destination" : [ "obj-5", 1 ],
					"hidden" : 0,
					"midpoints" : [  ]
				}

			}
, 			{
				"patchline" : 				{
					"source" : [ "obj-13", 0 ],
					"destination" : [ "obj-7", 0 ],
					"hidden" : 0,
					"midpoints" : [  ]
				}

			}
, 			{
				"patchline" : 				{
					"source" : [ "obj-12", 0 ],
					"destination" : [ "obj-5", 0 ],
					"hidden" : 0,
					"midpoints" : [  ]
				}

			}
, 			{
				"patchline" : 				{
					"source" : [ "obj-7", 0 ],
					"destination" : [ "obj-12", 0 ],
					"hidden" : 0,
					"midpoints" : [  ]
				}

			}
, 			{
				"patchline" : 				{
					"source" : [ "obj-4", 0 ],
					"destination" : [ "obj-10", 0 ],
					"hidden" : 0,
					"midpoints" : [  ]
				}

			}
, 			{
				"patchline" : 				{
					"source" : [ "obj-3", 0 ],
					"destination" : [ "obj-2", 0 ],
					"hidden" : 0,
					"midpoints" : [  ]
				}

			}
 ]
	}

}
