{
	"patcher" : 	{
		"fileversion" : 1,
		"rect" : [ 333.0, 299.0, 1006.0, 591.0 ],
		"bglocked" : 0,
		"defrect" : [ 333.0, 299.0, 1006.0, 591.0 ],
		"openrect" : [ 0.0, 0.0, 0.0, 0.0 ],
		"openinpresentation" : 1,
		"default_fontsize" : 9.0,
		"default_fontface" : 0,
		"default_fontname" : "Arial",
		"gridonopen" : 0,
		"gridsize" : [ 15.0, 15.0 ],
		"gridsnaponopen" : 0,
		"toolbarvisible" : 1,
		"boxanimatetime" : 200,
		"imprint" : 0,
		"enablehscroll" : 1,
		"enablevscroll" : 1,
		"boxes" : [ 			{
				"box" : 				{
					"maxclass" : "newobj",
					"text" : "midiparse",
					"patching_rect" : [ 164.0, 400.0, 100.0, 17.0 ],
					"numoutlets" : 7,
					"fontsize" : 9.0,
					"outlettype" : [ "", "", "", "int", "int", "int", "int" ],
					"id" : "obj-17",
					"fontname" : "Arial",
					"numinlets" : 1
				}

			}
, 			{
				"box" : 				{
					"maxclass" : "number",
					"varname" : "4/y",
					"patching_rect" : [ 392.0, 287.0, 50.0, 17.0 ],
					"numoutlets" : 2,
					"fontsize" : 9.0,
					"outlettype" : [ "int", "bang" ],
					"id" : "obj-16",
					"fontname" : "Arial",
					"numinlets" : 1
				}

			}
, 			{
				"box" : 				{
					"maxclass" : "number",
					"varname" : "4/x",
					"patching_rect" : [ 65.0, 287.0, 50.0, 17.0 ],
					"numoutlets" : 2,
					"fontsize" : 9.0,
					"outlettype" : [ "int", "bang" ],
					"id" : "obj-14",
					"fontname" : "Arial",
					"numinlets" : 1
				}

			}
, 			{
				"box" : 				{
					"maxclass" : "toggle",
					"patching_rect" : [ 536.0, 63.0, 20.0, 20.0 ],
					"numoutlets" : 1,
					"outlettype" : [ "int" ],
					"id" : "obj-12",
					"numinlets" : 1
				}

			}
, 			{
				"box" : 				{
					"maxclass" : "newobj",
					"text" : "pvar 4/toggle1",
					"patching_rect" : [ 529.0, 88.0, 68.0, 17.0 ],
					"numoutlets" : 1,
					"fontsize" : 9.0,
					"outlettype" : [ "" ],
					"id" : "obj-10",
					"fontname" : "Arial",
					"numinlets" : 1
				}

			}
, 			{
				"box" : 				{
					"maxclass" : "outlet",
					"patching_rect" : [ 64.0, 366.0, 25.0, 25.0 ],
					"numoutlets" : 0,
					"id" : "obj-9",
					"numinlets" : 1,
					"comment" : ""
				}

			}
, 			{
				"box" : 				{
					"maxclass" : "newobj",
					"text" : "thispatcher",
					"patching_rect" : [ 23.0, 41.0, 55.0, 17.0 ],
					"numoutlets" : 2,
					"fontsize" : 9.0,
					"outlettype" : [ "", "" ],
					"id" : "obj-3",
					"fontname" : "Arial",
					"numinlets" : 1,
					"save" : [ "#N", "thispatcher", ";", "#Q", "end", ";" ]
				}

			}
, 			{
				"box" : 				{
					"maxclass" : "inlet",
					"patching_rect" : [ 23.0, 10.0, 25.0, 25.0 ],
					"numoutlets" : 1,
					"outlettype" : [ "" ],
					"id" : "obj-2",
					"numinlets" : 0,
					"comment" : ""
				}

			}
, 			{
				"box" : 				{
					"maxclass" : "led",
					"varname" : "4/toggle5",
					"patching_rect" : [ 415.0, 244.0, 20.0, 20.0 ],
					"numoutlets" : 1,
					"presentation" : 1,
					"outlettype" : [ "int" ],
					"id" : "obj-8",
					"presentation_rect" : [ 311.0, 124.0, 27.0, 27.0 ],
					"numinlets" : 1
				}

			}
, 			{
				"box" : 				{
					"maxclass" : "led",
					"varname" : "4/toggle4",
					"patching_rect" : [ 415.0, 211.0, 20.0, 20.0 ],
					"numoutlets" : 1,
					"presentation" : 1,
					"outlettype" : [ "int" ],
					"id" : "obj-7",
					"presentation_rect" : [ 311.0, 95.0, 27.0, 27.0 ],
					"numinlets" : 1
				}

			}
, 			{
				"box" : 				{
					"maxclass" : "led",
					"varname" : "4/toggle3",
					"patching_rect" : [ 415.0, 179.0, 20.0, 20.0 ],
					"numoutlets" : 1,
					"presentation" : 1,
					"outlettype" : [ "int" ],
					"id" : "obj-6",
					"presentation_rect" : [ 311.0, 65.0, 27.0, 27.0 ],
					"numinlets" : 1
				}

			}
, 			{
				"box" : 				{
					"maxclass" : "led",
					"varname" : "4/toggle2",
					"patching_rect" : [ 415.0, 147.0, 20.0, 20.0 ],
					"numoutlets" : 1,
					"presentation" : 1,
					"outlettype" : [ "int" ],
					"id" : "obj-5",
					"presentation_rect" : [ 311.0, 36.0, 27.0, 27.0 ],
					"numinlets" : 1
				}

			}
, 			{
				"box" : 				{
					"maxclass" : "led",
					"varname" : "4/toggle1",
					"patching_rect" : [ 415.0, 115.0, 20.0, 20.0 ],
					"numoutlets" : 1,
					"presentation" : 1,
					"outlettype" : [ "int" ],
					"id" : "obj-4",
					"presentation_rect" : [ 311.0, 7.0, 27.0, 27.0 ],
					"numinlets" : 1
				}

			}
, 			{
				"box" : 				{
					"maxclass" : "pictslider",
					"varname" : "4/xy",
					"patching_rect" : [ 65.0, 115.0, 346.0, 164.0 ],
					"numoutlets" : 2,
					"presentation" : 1,
					"outlettype" : [ "int", "int" ],
					"id" : "obj-1",
					"presentation_rect" : [ 6.0, 7.0, 297.0, 148.0 ],
					"numinlets" : 2
				}

			}
 ],
		"lines" : [ 			{
				"patchline" : 				{
					"source" : [ "obj-1", 1 ],
					"destination" : [ "obj-16", 0 ],
					"hidden" : 0,
					"midpoints" : [  ]
				}

			}
, 			{
				"patchline" : 				{
					"source" : [ "obj-1", 0 ],
					"destination" : [ "obj-14", 0 ],
					"hidden" : 0,
					"midpoints" : [  ]
				}

			}
, 			{
				"patchline" : 				{
					"source" : [ "obj-12", 0 ],
					"destination" : [ "obj-10", 0 ],
					"hidden" : 0,
					"midpoints" : [  ]
				}

			}
, 			{
				"patchline" : 				{
					"source" : [ "obj-2", 0 ],
					"destination" : [ "obj-3", 0 ],
					"hidden" : 0,
					"midpoints" : [  ]
				}

			}
 ]
	}

}
